<svg xmlns="http://www.w3.org/2000/svg" viewBox="0 0 960 540" role="img" aria-label="Default blog cover">
  <defs>
    <linearGradient id="bg" x1="0" y1="0" x2="1" y2="1">
      <stop offset="0" stop-color="#e8f3ef"/>
      <stop offset="1" stop-color="#f7f1e6"/>
    </linearGradient>
    <pattern id="lines" width="44" height="44" patternUnits="userSpaceOnUse" patternTransform="rotate(18)">
      <path d="M0 22H44" stroke="#1f8068" stroke-opacity=".11" stroke-width="3"/>
    </pattern>
  </defs>
  <rect width="960" height="540" fill="url(#bg)"/>
  <rect width="960" height="540" fill="url(#lines)"/>
  <circle cx="190" cy="130" r="92" fill="#1f8068" fill-opacity=".13"/>
  <circle cx="790" cy="420" r="130" fill="#d89d42" fill-opacity=".16"/>
  <g transform="translate(360 170)" fill="none" stroke="#1f8068" stroke-linecap="round" stroke-linejoin="round">
    <path d="M34 36h145c29 0 52 23 52 52v190H86c-29 0-52-23-52-52V36Z" fill="#ffffff" fill-opacity=".7" stroke-width="10"/>
    <path d="M231 88c0-29 23-52 52-52h145v190c0 29-23 52-52 52H231V88Z" fill="#ffffff" fill-opacity=".7" stroke-width="10"/>
    <path d="M118 104h72M118 152h68M118 200h52M302 104h72M302 152h68M302 200h52" stroke-width="12"/>
  </g>
</svg>
